<svg viewBox="0 0 24 24" fill="none" xmlns="http://www.w3.org/2000/svg">
  <path d="M12 2L12 22M7 7L17 7M7 12L17 12M7 17L17 17M4 6C4 4.89543 4.89543 4 6 4L18 4C19.1046 4 20 4.89543 20 6L20 18C20 19.1046 19.1046 20 18 20L6 20C4.89543 20 4 19.1046 4 18L4 6Z" fill="url(#otherGradient)" stroke="url(#otherBorder)" stroke-width="1.5"/>
  <circle cx="12" cy="12" r="2" fill="white" opacity="0.8"/>
  <defs>
    <linearGradient id="otherGradient" x1="4" y1="4" x2="20" y2="20">
      <stop offset="0%" stop-color="#94a3b8"/>
      <stop offset="100%" stop-color="#64748b"/>
    </linearGradient>
    <linearGradient id="otherBorder" x1="4" y1="4" x2="20" y2="20">
      <stop offset="0%" stop-color="#94a3b8"/>
      <stop offset="100%" stop-color="#64748b"/>
    </linearGradient>
  </defs>
</svg>